<svg width="29" height="21" viewBox="0 0 29 21" fill="none" xmlns="http://www.w3.org/2000/svg">
<path d="M16.75 11.75C15.7083 11.75 14.8229 11.3854 14.0938 10.6562C13.3646 9.92708 13 9.04167 13 8C13 6.95833 13.3646 6.07292 14.0938 5.34375C14.8229 4.61458 15.7083 4.25 16.75 4.25C17.7917 4.25 18.6771 4.61458 19.4062 5.34375C20.1354 6.07292 20.5 6.95833 20.5 8C20.5 9.04167 20.1354 9.92708 19.4062 10.6562C18.6771 11.3854 17.7917 11.75 16.75 11.75ZM8 15.5C7.3125 15.5 6.72396 15.2552 6.23438 14.7656C5.74479 14.276 5.5 13.6875 5.5 13V3C5.5 2.3125 5.74479 1.72396 6.23438 1.23438C6.72396 0.744792 7.3125 0.5 8 0.5H25.5C26.1875 0.5 26.776 0.744792 27.2656 1.23438C27.7552 1.72396 28 2.3125 28 3V13C28 13.6875 27.7552 14.276 27.2656 14.7656C26.776 15.2552 26.1875 15.5 25.5 15.5H8ZM10.5 13H23C23 12.3125 23.2448 11.724 23.7344 11.2344C24.224 10.7448 24.8125 10.5 25.5 10.5V5.5C24.8125 5.5 24.224 5.25521 23.7344 4.76562C23.2448 4.27604 23 3.6875 23 3H10.5C10.5 3.6875 10.2552 4.27604 9.76562 4.76562C9.27604 5.25521 8.6875 5.5 8 5.5V10.5C8.6875 10.5 9.27604 10.7448 9.76562 11.2344C10.2552 11.724 10.5 12.3125 10.5 13ZM24.25 20.5H3C2.3125 20.5 1.72396 20.2552 1.23438 19.7656C0.744792 19.276 0.5 18.6875 0.5 18V4.25H3V18H24.25V20.5Z" fill="#00EEFC"/>
<path d="M8 13V3M16.75 11.75C15.7083 11.75 14.8229 11.3854 14.0938 10.6562C13.3646 9.92708 13 9.04167 13 8C13 6.95833 13.3646 6.07292 14.0938 5.34375C14.8229 4.61458 15.7083 4.25 16.75 4.25C17.7917 4.25 18.6771 4.61458 19.4062 5.34375C20.1354 6.07292 20.5 6.95833 20.5 8C20.5 9.04167 20.1354 9.92708 19.4062 10.6562C18.6771 11.3854 17.7917 11.75 16.75 11.75ZM8 15.5C7.3125 15.5 6.72396 15.2552 6.23438 14.7656C5.74479 14.276 5.5 13.6875 5.5 13V3C5.5 2.3125 5.74479 1.72396 6.23438 1.23438C6.72396 0.744792 7.3125 0.5 8 0.5H25.5C26.1875 0.5 26.776 0.744792 27.2656 1.23438C27.7552 1.72396 28 2.3125 28 3V13C28 13.6875 27.7552 14.276 27.2656 14.7656C26.776 15.2552 26.1875 15.5 25.5 15.5H8ZM10.5 13H23C23 12.3125 23.2448 11.724 23.7344 11.2344C24.224 10.7448 24.8125 10.5 25.5 10.5V5.5C24.8125 5.5 24.224 5.25521 23.7344 4.76562C23.2448 4.27604 23 3.6875 23 3H10.5C10.5 3.6875 10.2552 4.27604 9.76562 4.76562C9.27604 5.25521 8.6875 5.5 8 5.5V10.5C8.6875 10.5 9.27604 10.7448 9.76562 11.2344C10.2552 11.724 10.5 12.3125 10.5 13ZM24.25 20.5H3C2.3125 20.5 1.72396 20.2552 1.23438 19.7656C0.744792 19.276 0.5 18.6875 0.5 18V4.25H3V18H24.25V20.5Z" stroke="black" stroke-linejoin="bevel"/>
</svg>
