<svg width="27" height="23" viewBox="0 0 27 23" fill="none" xmlns="http://www.w3.org/2000/svg">
<path d="M18.75 22.5L18.375 20.625C18.125 20.5208 17.8906 20.4115 17.6719 20.2969C17.4531 20.1823 17.2292 20.0417 17 19.875L15.1875 20.4375L13.9375 18.3125L15.375 17.0625C15.3333 16.8125 15.3125 16.5417 15.3125 16.25C15.3125 15.9583 15.3333 15.6875 15.375 15.4375L13.9375 14.1875L15.1875 12.0625L17 12.625C17.2292 12.4583 17.4531 12.3177 17.6719 12.2031C17.8906 12.0885 18.125 11.9792 18.375 11.875L18.75 10H21.25L21.625 11.875C21.875 11.9792 22.1094 12.0885 22.3281 12.2031C22.5469 12.3177 22.7708 12.4583 23 12.625L24.8125 12.0625L26.0625 14.1875L24.625 15.4375C24.6667 15.6875 24.6875 15.9583 24.6875 16.25C24.6875 16.5417 24.6667 16.8125 24.625 17.0625L26.0625 18.3125L24.8125 20.4375L23 19.875C22.7708 20.0417 22.5469 20.1823 22.3281 20.2969C22.1094 20.4115 21.875 20.5208 21.625 20.625L21.25 22.5H18.75V22.5M20 18.75C20.6875 18.75 21.276 18.5052 21.7656 18.0156C22.2552 17.526 22.5 16.9375 22.5 16.25C22.5 15.5625 22.2552 14.974 21.7656 14.4844C21.276 13.9948 20.6875 13.75 20 13.75C19.3125 13.75 18.724 13.9948 18.2344 14.4844C17.7448 14.974 17.5 15.5625 17.5 16.25C17.5 16.9375 17.7448 17.526 18.2344 18.0156C18.724 18.5052 19.3125 18.75 20 18.75V18.75M2.5 17.5V17.5V17.5V17.5V2.5V2.5V2.5V2.5V5V5V5V5V7.875C2.5 7.75 2.5 7.65625 2.5 7.59375C2.5 7.53125 2.5 7.5 2.5 7.5C2.5 7.5 2.5 8.35938 2.5 10.0781C2.5 11.7969 2.5 13.8438 2.5 16.2188C2.5 16.4479 2.5 16.6615 2.5 16.8594C2.5 17.0573 2.5 17.2708 2.5 17.5V17.5M2.5 20C1.8125 20 1.22396 19.7552 0.734375 19.2656C0.244792 18.776 0 18.1875 0 17.5V2.5C0 1.8125 0.244792 1.22396 0.734375 0.734375C1.22396 0.244792 1.8125 0 2.5 0H10L12.5 2.5H22.5C23.1875 2.5 23.776 2.74479 24.2656 3.23438C24.7552 3.72396 25 4.3125 25 5V9.09375C24.625 8.82292 24.2292 8.58854 23.8125 8.39062C23.3958 8.19271 22.9583 8.02083 22.5 7.875V5V5V5H11.4688L8.96875 2.5H2.5V2.5V2.5V17.5V17.5V17.5H11.3438C11.4062 17.9375 11.5052 18.3646 11.6406 18.7812C11.776 19.1979 11.9375 19.6042 12.125 20H2.5V20" fill="#00EEFC"/>
</svg>
